<svg width="354" height="512" viewBox="0 0 354 512" fill="none" xmlns="http://www.w3.org/2000/svg">
<path d="M328.6 87.7C297.5 34.1 242.3 1.3 180.9 3.05474e-06C178.3 -0.0999969 175.6 -0.0999969 173 3.05474e-06C111.6 1.3 56.4 34 25.4 87.6C-6.39999 142.4 -7.2 208.3 23.1 263.7L150.1 496.1C150.2 496.2 150.2 496.3 150.3 496.4C155.9 506.1 165.9 511.9 177.1 511.9C188.3 511.9 198.3 506.1 203.9 496.4C204 496.3 204 496.2 204.1 496.1L331.1 263.7C361.2 208.3 360.3 142.5 328.6 87.7Z" fill="#FA180A"/>
<path d="M284.812 105.5H281.219V94.7188C281.219 92.735 279.609 91.125 277.625 91.125H256.062C254.079 91.125 252.469 92.735 252.469 94.7188V105.5H219.478L209.272 54.4831C208.938 52.8013 207.464 51.5938 205.75 51.5938H148.25C146.536 51.5938 145.062 52.8013 144.728 54.4831L134.522 105.5H101.531V94.7188C101.531 92.735 99.9212 91.125 97.9375 91.125H76.375C74.3913 91.125 72.7812 92.735 72.7812 94.7188V105.5H69.1875C67.2038 105.5 65.5938 107.11 65.5938 109.094V159.406C65.5938 161.39 67.2038 163 69.1875 163H72.7812V234.875C72.7812 236.862 74.3913 238.469 76.375 238.469H97.9375C99.9212 238.469 101.531 236.862 101.531 234.875V163H123.022L101.603 270.108C101.391 271.165 101.664 272.261 102.347 273.091C103.03 273.921 104.047 274.406 105.125 274.406H248.875C249.953 274.406 250.97 273.921 251.653 273.091C252.336 272.261 252.609 271.165 252.397 270.108L230.978 163H252.469V231.281C252.469 233.269 254.079 234.875 256.062 234.875H277.625C279.609 234.875 281.219 233.269 281.219 231.281V163H284.812C286.796 163 288.406 161.39 288.406 159.406V109.094C288.406 107.11 286.796 105.5 284.812 105.5V105.5ZM77.8628 155.812L120.988 112.688H139.575L96.4497 155.812H77.8628ZM149.738 112.688H179.106L135.981 155.812H106.613L149.738 112.688ZM189.269 112.688H207.856L164.731 155.812H146.144L189.269 112.688ZM218.019 112.688H247.387L204.262 155.812H174.894L218.019 112.688ZM257.55 112.688H276.137L233.012 155.812H214.425L257.55 112.688ZM259.656 98.3125H274.031V105.5H259.656V98.3125ZM151.197 58.7812H173.406V73.1562H180.594V58.7812H202.803L212.147 105.5H141.853L151.197 58.7812ZM79.9688 98.3125H94.3438V105.5H79.9688V98.3125ZM110.825 112.688L72.7812 150.731V112.688H110.825ZM94.3438 231.281H79.9688V163H94.3438V231.281ZM244.491 267.219H180.594V252.844H173.406V267.219H109.509L130.353 163H223.647L244.491 267.219ZM274.031 227.688H259.656V163H274.031V227.688ZM243.175 155.812L281.219 117.769V155.812H243.175Z" fill="black"/>
<path d="M173.406 224.094H180.594V238.469H173.406V224.094Z" fill="black"/>
<path d="M173.406 195.344H180.594V209.719H173.406V195.344Z" fill="black"/>
<path d="M173.406 166.594H180.594V180.969H173.406V166.594Z" fill="black"/>
<path d="M173.406 87.5312H180.594V101.906H173.406V87.5312Z" fill="black"/>
</svg>
