<svg width="354" height="512" viewBox="0 0 354 512" fill="none" xmlns="http://www.w3.org/2000/svg">
<path d="M328.6 87.7C297.5 34.1 242.3 1.3 180.9 3.05474e-06C178.3 -0.0999969 175.6 -0.0999969 173 3.05474e-06C111.6 1.3 56.4 34 25.4 87.6C-6.39999 142.4 -7.2 208.3 23.1 263.7L150.1 496.1C150.2 496.2 150.2 496.3 150.3 496.4C155.9 506.1 165.9 511.9 177.1 511.9C188.3 511.9 198.3 506.1 203.9 496.4C204 496.3 204 496.2 204.1 496.1L331.1 263.7C361.2 208.3 360.3 142.5 328.6 87.7Z" fill="#0AA4FA"/>
<g clip-path="url(#clip0)">
<path d="M247.078 107.094C247.078 109.573 249.091 111.586 251.57 111.586C254.05 111.586 256.062 109.573 256.062 107.094C256.062 104.614 254.05 102.602 251.57 102.602C249.091 102.602 247.078 104.614 247.078 107.094Z" fill="#F6EACB"/>
<path d="M265.047 161C265.047 166.754 264.47 172.497 263.332 178.07C262.836 180.501 264.405 182.873 266.835 183.37C267.139 183.433 267.44 183.463 267.739 183.463C269.829 183.463 271.701 181.994 272.136 179.867C273.394 173.703 274.031 167.356 274.031 161C274.031 146.855 270.964 133.243 264.912 120.542C263.845 118.303 261.165 117.352 258.925 118.419C256.684 119.486 255.734 122.167 256.801 124.408C262.273 135.891 265.047 148.203 265.047 161V161Z" fill="#F6EACB"/>
<path d="M199.461 201.43H194.969V143.031C194.969 140.55 192.958 138.539 190.477 138.539H154.539C152.058 138.539 150.047 140.55 150.047 143.031V161C150.047 163.481 152.058 165.492 154.539 165.492H159.031V201.43H154.539C152.058 201.43 150.047 203.441 150.047 205.922V223.891C150.047 226.372 152.058 228.383 154.539 228.383H199.461C201.942 228.383 203.953 226.372 203.953 223.891V205.922C203.953 203.441 201.942 201.43 199.461 201.43ZM194.969 219.398H159.031V210.414H163.523C166.005 210.414 168.016 208.403 168.016 205.922V161C168.016 158.519 166.005 156.508 163.523 156.508H159.031V147.523H185.984V205.922C185.984 208.403 187.997 210.414 190.477 210.414H194.969V219.398Z" fill="#F6EACB"/>
<path d="M177 129.555C186.907 129.555 194.969 121.493 194.969 111.586C194.969 101.679 186.907 93.6172 177 93.6172C167.093 93.6172 159.031 101.679 159.031 111.586C159.031 121.493 167.093 129.555 177 129.555ZM177 102.602C181.954 102.602 185.984 106.632 185.984 111.586C185.984 116.54 181.954 120.57 177 120.57C172.046 120.57 168.016 116.54 168.016 111.586C168.016 106.632 172.046 102.602 177 102.602Z" fill="#F6EACB"/>
<path d="M177 46C115.018 46 61.9998 98.9183 61.9998 161C61.9998 182.206 68.0765 204.758 78.3225 221.816L62.2296 270.088C61.6927 271.701 62.1121 273.482 63.3158 274.684C64.5249 275.893 66.3077 276.305 67.9133 275.768L116.185 259.677C133.241 269.925 155.793 276 177 276C238.997 276 292 223.075 292 161C292 99.0025 239.076 46 177 46V46ZM177 267.016C156.657 267.016 135.035 261.013 119.159 250.958C118.035 250.245 116.632 250.058 115.334 250.491L73.5952 264.405L87.5087 222.666C87.9369 221.385 87.7649 219.981 87.0419 218.84C76.9872 202.967 70.9841 181.343 70.9841 161C70.9841 103.533 119.533 54.9844 177 54.9844C234.466 54.9844 283.015 103.533 283.015 161C283.015 218.467 234.466 267.016 177 267.016Z" fill="#F6EACB"/>
</g>
<defs>
<clipPath id="clip0">
<rect width="230" height="230" fill="white" transform="translate(62 46)"/>
</clipPath>
</defs>
</svg>
