<svg id="Capa_1" enable-background="new 0 0 512 512" height="512" viewBox="0 0 512 512" width="512" xmlns="http://www.w3.org/2000/svg"><g><g><g><path d="m290.72 140.047-7.569 44.127c-.911 5.314 1.232 10.584 5.595 13.754 4.362 3.169 10.036 3.579 14.809 1.07l39.628-20.834 39.628 20.833c2.076 1.092 4.322 1.631 6.557 1.631 2.903 0 5.788-.91 8.252-2.701 4.362-3.17 6.506-8.44 5.594-13.754l-7.568-44.127 32.06-31.251c3.861-3.764 5.225-9.288 3.558-14.416-1.666-5.128-6.016-8.795-11.351-9.57l-44.306-6.438-19.814-40.148c-2.386-4.835-7.218-7.839-12.609-7.839 0 0 0 0-.001 0-5.392 0-10.224 3.004-12.61 7.839l-19.814 40.148-44.305 6.438c-5.336.775-9.686 4.442-11.352 9.57s-.303 10.652 3.558 14.416zm22.675-46.916c4.581-.666 8.539-3.542 10.587-7.693l19.201-38.906 19.202 38.906c2.048 4.151 6.006 7.027 10.588 7.693l42.936 6.239-31.069 30.285c-3.315 3.232-4.827 7.885-4.044 12.447l7.334 42.762-38.403-20.189c-4.098-2.154-8.99-2.154-13.088 0l-38.403 20.19 7.334-42.763c.782-4.563-.73-9.217-4.045-12.446l-31.067-30.286z"/><path d="m494.162 372.228c-2.907-3.707-7.697-5.228-12.209-3.873-11.713 3.516-23.719 6.027-35.897 7.549 4.508-20.08-5.409-41.196-24.569-50.204-3.357-1.578-6.863-2.728-10.461-3.432.126-.281.249-.563.37-.845 3.761-8.812 5.102-18.468 3.876-27.924-.532-4.103-4.286-6.994-8.393-6.468-4.104.532-6.999 4.29-6.468 8.393.882 6.806-.085 13.762-2.797 20.113-.41.959-.862 1.911-1.346 2.83-1.937 3.679-1.939 8.058-.007 11.715 1.915 3.624 5.495 6.067 9.578 6.534 3.198.366 6.317 1.256 9.27 2.644 14.16 6.658 20.731 23.267 14.959 37.814-.034.087-.075.169-.11.255-24.125 1.269-48.714-1.29-72.872-7.703-36.166-9.6-69.398-28.529-96.105-54.743-6.116-6.003-11.832-12.367-17.164-19.019 5.175-.657 10.459.064 15.409 2.177 3.096 1.326 6.511 1.369 9.621.12 3.109-1.249 5.546-3.644 6.881-6.784 6.431-15.069 23.925-22.096 38.991-15.664 1.021.436 2.03.937 3.001 1.489 5.045 2.869 11.536 1.777 15.432-2.596 11.062-12.413 28.77-16.365 44.065-9.837 3.288 1.403 6.351 3.239 9.105 5.457 3.224 2.595 7.94 2.087 10.535-1.136 2.596-3.222 2.087-7.939-1.136-10.535-3.823-3.079-8.07-5.626-12.622-7.568-20.615-8.799-44.39-3.872-59.799 12.205-.887-.451-1.789-.873-2.698-1.261-21.935-9.362-47.28.233-57.688 21.454-9.34-3.438-19.399-3.652-28.856-.649-13.127-19.197-23.108-40.456-29.427-62.909-20.088-71.372-6.24-144.774 37.993-201.385 2.911-3.726 3.239-8.762.836-12.831-2.402-4.069-6.968-6.212-11.638-5.464-59.304 9.521-113.776 39.873-153.377 85.464-2.714 3.124-2.381 7.856.743 10.57 3.125 2.714 7.857 2.381 10.57-.743 35.313-40.655 83.174-68.443 135.559-78.895-42.823 59.334-55.647 134.37-35.107 207.345 10.819 38.44 31.662 73.604 60.277 101.69 28.556 28.028 64.088 48.269 102.757 58.532 41.442 11 84.124 11.351 124.053 1.093-27.458 42.773-68.083 76.292-115.285 94.925-53.609 21.162-112.453 22.448-170.171 3.719-29.286-9.503-55.931-24.718-78.745-44.317 3.45-2.856 7.067-5.346 10.803-7.235 3.793-1.917 6.148-5.754 6.148-10.012s-2.356-8.095-6.148-10.012c-19.248-9.733-35.376-35.289-41.418-45.825-1.996-3.482-5.732-5.646-9.749-5.646s-7.753 2.163-9.749 5.646c-.958 1.67-2.171 3.72-3.608 6.023-7.055-13.221-12.911-27.203-17.369-41.826-22.183-72.759-12.508-146.61 27.241-207.951 2.25-3.473 1.259-8.112-2.213-10.362s-8.112-1.259-10.362 2.213c-20.248 31.246-33.224 65.742-38.567 102.528-5.651 38.902-2.432 78.584 9.568 117.942 5.509 18.07 13.006 35.232 22.207 51.258-7.618 10.012-17.471 20.518-28.315 26.001-3.792 1.918-6.147 5.755-6.147 10.012 0 4.258 2.355 8.094 6.148 10.012 19.248 9.733 35.376 35.289 41.417 45.825 1.996 3.482 5.732 5.646 9.749 5.646s7.753-2.163 9.749-5.645c3.573-6.232 10.676-17.717 19.865-28.075 24.515 21.286 53.247 37.794 84.87 48.055 28.573 9.271 57.426 13.9 85.869 13.9 32.346 0 64.161-5.986 94.429-17.934 53.125-20.971 98.405-59.703 127.497-109.061 2.39-4.058 2.057-9.073-.849-12.779zm-421.429 92.963c-8.22-13.381-21.771-32.095-38.561-42.908 16.79-10.814 30.341-29.527 38.561-42.908 8.22 13.381 21.771 32.094 38.561 42.908-16.79 10.814-30.341 29.526-38.561 42.908z"/><path d="m86.415 315.769c15.357 7.765 28.321 28.326 33.183 36.806 1.874 3.268 5.38 5.297 9.149 5.297s7.274-2.03 9.147-5.297c4.862-8.48 17.828-29.041 33.183-36.806 3.56-1.8 5.772-5.401 5.772-9.397s-2.212-7.597-5.772-9.397c-15.356-7.765-28.321-28.326-33.183-36.805-1.873-3.268-5.378-5.298-9.148-5.298 0 0 0 0-.001 0-3.769 0-7.275 2.03-9.148 5.297v.001c-4.861 8.479-17.826 29.04-33.182 36.804-3.56 1.8-5.772 5.401-5.772 9.398.001 3.997 2.212 7.598 5.772 9.397zm42.331-41.753c6.549 10.357 16.607 23.8 28.941 32.356-12.335 8.556-22.392 21.999-28.941 32.356-6.549-10.357-16.606-23.799-28.941-32.356 12.336-8.557 22.393-22 28.941-32.356z"/></g></g></g></svg>