<svg width="353" height="512" viewBox="0 0 353 512" fill="none" xmlns="http://www.w3.org/2000/svg">
<path d="M327.652 87.775C296.552 34.175 241.352 1.375 179.952 0.075C177.352 -0.025 174.652 -0.025 172.052 0.075C110.652 1.375 55.452 34.075 24.452 87.675C-7.34799 142.475 -8.14799 208.375 22.152 263.775L149.152 496.175C149.252 496.275 149.252 496.375 149.352 496.475C154.952 506.175 164.952 511.975 176.152 511.975C187.352 511.975 197.352 506.175 202.952 496.475C203.052 496.375 203.052 496.275 203.152 496.175L330.152 263.775C360.252 208.375 359.352 142.575 327.652 87.775Z" fill="#FA180A"/>
<g clip-path="url(#clip0)">
<path d="M289.738 101.053L246.076 57.3903C244.321 55.6366 241.477 55.6366 239.723 57.3903L225.971 71.1423C218.483 78.6303 214.687 86.6394 214.687 94.9468C214.687 99.8078 215.997 104.565 218.575 109.177L136.268 191.485L115.376 170.593C113.623 168.839 110.778 168.839 109.023 170.593L71.2006 208.416C64.1861 215.431 60.5114 225.134 61.1192 235.035L62.7009 260.811C63.4794 273.497 73.6322 283.649 86.3173 284.428C86.3173 284.428 113.513 286.075 114.218 286.075C123.47 286.075 132.169 282.472 138.713 275.929L176.535 238.106C178.289 236.351 178.289 233.507 176.535 231.753L155.326 210.544L186.675 179.192C187.524 178.343 187.992 177.216 187.992 176.016C187.992 174.817 187.524 173.689 186.675 172.84C185.826 171.991 184.699 171.524 183.499 171.524C182.3 171.524 181.173 171.991 180.324 172.84L158.996 194.168L152.642 187.813L223.839 116.616L230.195 122.968L208.911 144.252C208.062 145.101 207.595 146.229 207.595 147.428C207.595 148.628 208.062 149.755 208.911 150.604C209.76 151.453 210.888 151.92 212.087 151.92C213.287 151.92 214.414 151.453 215.263 150.604L237.545 128.323C242.283 131.055 247.178 132.442 252.181 132.442C260.489 132.442 268.498 128.646 275.986 121.158C275.987 121.157 289.738 107.406 289.738 107.406C291.493 105.651 291.493 102.807 289.738 101.053V101.053ZM167.006 234.929L132.36 269.575C127.513 274.421 121.07 277.091 114.217 277.091C113.695 277.091 86.8671 275.46 86.8671 275.46C78.7035 274.96 72.1691 268.426 71.6687 260.262L70.087 234.485C69.6369 227.151 72.3582 219.965 77.5539 214.77L112.2 180.124L129.915 197.838L124.056 203.697C122.302 205.451 122.302 208.295 124.056 210.05L136.762 222.756C137.639 223.633 138.789 224.072 139.938 224.072C141.088 224.072 142.238 223.633 143.115 222.756L148.973 216.897L167.006 234.929ZM152.644 200.52L139.938 213.226L133.585 206.873L146.291 194.167L152.644 200.52ZM252.182 123.458C246.344 123.458 240.472 120.547 234.731 114.805L232.324 112.399C221.856 101.93 220.852 91.3284 229.309 80.8342L266.291 117.816C261.624 121.563 256.892 123.458 252.182 123.458V123.458ZM272.81 111.629L235.5 74.3187L242.899 66.9196L280.209 104.229L272.81 111.629Z" fill="#212121"/>
<path d="M197.792 166.214C200.272 166.214 202.284 164.203 202.284 161.722C202.284 159.241 200.272 157.23 197.792 157.23C195.311 157.23 193.299 159.241 193.299 161.722C193.299 164.203 195.311 166.214 197.792 166.214Z" fill="#212121"/>
</g>
<defs>
<clipPath id="clip0">
<rect width="230" height="230" fill="white" transform="translate(61.052 56.075)"/>
</clipPath>
</defs>
</svg>
