<svg width="354" height="512" viewBox="0 0 354 512" fill="none" xmlns="http://www.w3.org/2000/svg">
<path d="M328.6 87.7C297.5 34.1 242.3 1.29999 180.9 -1.22041e-05C178.3 -0.100012 175.6 -0.100012 173 -1.22041e-05C111.6 1.29999 56.4 34 25.4 87.6C-6.39999 142.4 -7.2 208.3 23.1 263.7L150.1 496.1C150.2 496.2 150.2 496.3 150.3 496.4C155.9 506.1 165.9 511.9 177.1 511.9C188.3 511.9 198.3 506.1 203.9 496.4C204 496.3 204 496.2 204.1 496.1L331.1 263.7C361.2 208.3 360.3 142.5 328.6 87.7Z" fill="#FAB40A"/>
<path d="M139.843 222.84C138.838 222.672 137.814 222.726 136.829 222.999C135.844 223.271 134.919 223.757 134.109 224.428C133.299 225.098 132.621 225.94 132.113 226.902C131.605 227.864 131.28 228.928 131.155 230.031C131.03 231.133 131.108 232.252 131.385 233.321C131.663 234.39 132.133 235.387 132.769 236.253C133.405 237.12 134.193 237.838 135.087 238.365C135.981 238.893 136.962 239.219 137.974 239.324C138.291 239.369 138.611 239.391 138.931 239.391C140.859 239.378 142.71 238.564 144.109 237.114C145.509 235.664 146.352 233.686 146.468 231.582C146.584 229.477 145.964 227.403 144.734 225.78C143.503 224.157 141.755 223.106 139.843 222.84V222.84ZM138.551 235.237L138.866 231.647L138.931 231.082L138.551 235.237Z" fill="black"/>
<path d="M288.7 155.199L293 148.352C289.929 146.009 286.168 145.005 282.455 145.536L229.857 153.051C227.511 153.358 225.262 154.26 223.291 155.685C221.319 157.109 219.679 159.016 218.499 161.256L204.475 188.014L191.761 178.43C189.06 176.404 185.778 175.518 182.526 175.937C179.273 176.356 176.269 178.05 174.071 180.706L179.716 186.269C180.676 185.106 181.989 184.364 183.412 184.181C184.834 183.997 186.269 184.385 187.45 185.272L197.087 192.534L196.05 193.743L192.331 192.152C191.527 191.807 190.64 191.771 189.816 192.051C188.991 192.332 188.279 192.911 187.795 193.693L186.937 195.097C186.186 194.37 185.259 193.897 184.267 193.735C183.275 193.572 182.262 193.728 181.349 194.183C179.486 195.245 177.845 196.721 176.533 198.516C174.649 196.364 172.211 194.889 169.543 194.287L167.101 190.702C166.766 190.212 166.337 189.81 165.844 189.523C165.351 189.235 164.806 189.071 164.248 189.04C163.689 189.003 163.13 189.104 162.611 189.337C162.093 189.569 161.63 189.926 161.255 190.382L159.496 192.484L157.456 189.252C157.161 188.783 156.78 188.385 156.338 188.084C155.897 187.783 155.403 187.584 154.888 187.5C154.372 187.417 153.847 187.45 153.344 187.597C152.841 187.745 152.371 188.004 151.964 188.359L149.753 190.286L134.49 161.173C133.311 158.94 131.677 157.035 129.715 155.604C127.753 154.174 125.517 153.258 123.178 152.926L70.4964 145.448C67.2033 144.986 63.8629 145.732 61 147.571L64.8593 154.733C66.2717 153.828 67.9196 153.462 69.5429 153.695L90.3286 156.644L87.5442 181.446L63.4083 178.122L62.451 186.365L86.6174 189.713L83.3734 218.569L63.4045 215.802L62.4624 224.02L116.143 231.464C116.217 237.482 118.284 243.265 121.96 247.743C125.637 252.22 130.673 255.088 136.135 255.813C137.07 255.937 138.012 255.999 138.954 256C143.942 255.992 148.79 254.19 152.75 250.872C156.71 247.554 159.563 242.904 160.868 237.638L172.643 239.266C172.802 239.29 172.962 239.301 173.122 239.299C173.81 239.298 174.485 239.092 175.074 238.703C175.664 238.315 176.145 237.758 176.468 237.094C176.782 237.778 177.263 238.353 177.858 238.757C178.453 239.161 179.138 239.378 179.838 239.383C179.998 239.384 180.158 239.373 180.316 239.349L192.851 237.617C194.04 242.395 196.504 246.678 199.928 249.919C203.352 253.16 207.581 255.212 212.076 255.813C213.011 255.937 213.952 255.999 214.894 256C220.449 255.987 225.809 253.755 229.965 249.724C234.121 245.693 236.788 240.141 237.465 234.111C237.575 233.236 237.643 232.355 237.67 231.473L291.329 224.02L290.371 215.778L269.609 218.656L266.361 189.792L291.329 186.34L290.371 178.097L265.434 181.541L262.653 156.736L283.458 153.765C285.308 153.499 287.182 154.012 288.7 155.199V155.199ZM97.8839 157.716L122.229 161.173C123.407 161.34 124.533 161.801 125.521 162.522C126.51 163.242 127.333 164.202 127.927 165.327L140.2 188.753L95.1109 182.522L97.8839 157.716ZM153.988 233.105C153.458 237.442 151.384 241.375 148.218 244.051C145.053 246.726 141.05 247.928 137.078 247.395C133.107 246.862 129.489 244.638 127.008 241.205C124.527 237.772 123.384 233.408 123.828 229.059C124.279 225.038 126.057 221.336 128.829 218.648C131.6 215.961 135.174 214.473 138.878 214.465C139.505 214.465 140.132 214.507 140.754 214.589C142.735 214.855 144.648 215.544 146.385 216.618C148.122 217.692 149.649 219.13 150.878 220.85C152.107 222.569 153.014 224.536 153.548 226.639C154.081 228.742 154.231 230.939 153.988 233.105V233.105ZM172.248 209.895L169.847 230.501L161.642 229.366C161.285 223.598 159.106 218.145 155.477 213.941C151.849 209.737 146.997 207.043 141.752 206.32C136.507 205.597 131.196 206.891 126.727 209.98C122.258 213.069 118.911 217.76 117.256 223.251L90.9022 219.6L94.1499 190.739L143.641 197.59V197.785C143.672 198.55 143.896 199.291 144.288 199.926C144.68 200.561 145.225 201.065 145.863 201.383C146.5 201.7 147.206 201.818 147.901 201.724C148.596 201.63 149.254 201.328 149.802 200.851L153.495 197.635L155.929 201.495C156.254 202.009 156.68 202.437 157.177 202.746C157.673 203.056 158.227 203.239 158.797 203.281C159.366 203.316 159.935 203.214 160.463 202.983C160.992 202.752 161.469 202.397 161.859 201.943L163.735 199.704L164.332 200.581C164.637 201.028 165.021 201.403 165.462 201.685C165.902 201.966 166.39 202.147 166.896 202.218C167.753 202.208 168.6 202.418 169.37 202.829C170.14 203.241 170.812 203.843 171.332 204.589C171.851 205.334 172.205 206.202 172.364 207.123C172.523 208.044 172.483 208.994 172.248 209.895V209.895ZM225.09 165.389C225.682 164.269 226.506 163.316 227.495 162.605C228.485 161.895 229.612 161.447 230.787 161.297L255.121 157.82L257.898 182.592L212.805 188.824L225.09 165.389ZM229.959 233.105C229.429 237.442 227.355 241.375 224.189 244.051C221.023 246.726 217.02 247.928 213.049 247.395C209.078 246.862 205.46 244.638 202.979 241.205C200.498 237.772 199.355 233.408 199.799 229.059V229.059C200.25 225.038 202.028 221.336 204.8 218.648C207.571 215.961 211.145 214.473 214.849 214.465C215.476 214.465 216.103 214.507 216.725 214.589C218.706 214.855 220.619 215.544 222.356 216.618C224.093 217.692 225.62 219.13 226.849 220.85C228.078 222.569 228.985 224.536 229.519 226.639C230.052 228.742 230.202 230.939 229.959 233.105V233.105ZM236.5 223.26C234.867 217.897 231.615 213.3 227.278 210.225C222.941 207.149 217.778 205.777 212.634 206.333C207.491 206.89 202.673 209.342 198.971 213.287C195.27 217.232 192.904 222.436 192.263 228.045C192.213 228.486 192.202 228.926 192.171 229.366L183.146 230.613L180.738 210.024C180.586 208.647 180.749 207.251 181.213 205.961C181.678 204.671 182.428 203.527 183.397 202.633C184.058 203.364 184.849 203.938 185.721 204.321C186.593 204.704 187.528 204.888 188.468 204.86C189.017 204.793 189.546 204.597 190.018 204.284C190.49 203.971 190.895 203.55 191.203 203.049L192.388 201.121L195.662 202.521C196.369 202.824 197.143 202.888 197.884 202.705C198.625 202.522 199.298 202.101 199.818 201.495L202.234 198.678L258.832 190.86L262.08 219.728L236.5 223.26Z" fill="black"/>
<path d="M215.813 222.84C214.809 222.672 213.785 222.726 212.8 222.999C211.815 223.271 210.89 223.757 210.08 224.428C209.27 225.098 208.591 225.94 208.084 226.902C207.576 227.864 207.251 228.928 207.126 230.031C207.001 231.133 207.079 232.252 207.356 233.321C207.633 234.39 208.104 235.387 208.74 236.253C209.375 237.12 210.164 237.838 211.058 238.365C211.952 238.893 212.933 239.219 213.945 239.324C214.262 239.369 214.582 239.391 214.902 239.391C216.83 239.378 218.681 238.564 220.08 237.114C221.48 235.664 222.323 233.686 222.439 231.582C222.555 229.477 221.935 227.403 220.705 225.78C219.474 224.157 217.726 223.106 215.813 222.84V222.84ZM214.522 235.237L214.837 231.647L214.902 231.082L214.522 235.237Z" fill="black"/>
<path d="M146.775 167.724L153.833 164.633L143.668 136.845L163.219 152.885C163.708 153.286 164.279 153.552 164.883 153.661C165.486 153.769 166.105 153.717 166.686 153.507C167.267 153.298 167.794 152.938 168.22 152.459C168.647 151.98 168.961 151.394 169.137 150.754L177.406 120.605L188.559 151.107C188.766 151.671 189.083 152.179 189.489 152.595C189.894 153.011 190.379 153.324 190.907 153.512C191.436 153.701 191.996 153.76 192.548 153.686C193.1 153.612 193.63 153.407 194.101 153.084L213.044 140.135L203.863 160.167L210.663 163.881L225.857 130.646C226.235 129.836 226.36 128.911 226.211 128.015C226.063 127.119 225.649 126.302 225.034 125.688C224.419 125.074 223.637 124.699 222.807 124.619C221.978 124.539 221.148 124.759 220.444 125.246L193.926 143.425L180.422 106.493C180.142 105.683 179.632 104.992 178.966 104.523C178.299 104.054 177.513 103.831 176.723 103.888C175.935 103.927 175.179 104.232 174.557 104.762C173.936 105.292 173.481 106.021 173.255 106.846L163.424 142.686L137.389 121.312C136.726 120.766 135.918 120.473 135.088 120.477C134.259 120.481 133.453 120.783 132.795 121.334C132.136 121.886 131.661 122.659 131.442 123.534C131.223 124.409 131.271 125.339 131.581 126.181L146.775 167.724Z" fill="black"/>
<path d="M96.0112 115.109L100.923 109.738L105.834 115.109L111.205 109.235L106.294 103.863L111.205 98.4917L105.834 92.6174L100.923 97.989L96.0112 92.6174L90.64 98.4917L95.5516 103.863L90.64 109.235L96.0112 115.109Z" fill="black"/>
<path d="M115.248 117.902L109.314 123.086L124.491 143.861L130.425 138.676L115.248 117.902Z" fill="black"/>
<path d="M217.975 98.757L196.998 121.699L202.37 127.575L223.347 104.632L217.975 98.757Z" fill="black"/>
<path d="M228.96 98.4917L233.872 93.1201L238.783 98.4917L244.154 92.6174L239.243 87.2458L244.154 81.8743L238.783 76L233.872 81.3716L228.96 76L223.589 81.8743L228.501 87.2458L223.589 92.6174L228.96 98.4917Z" fill="black"/>
<path d="M102.01 199.721L100.785 207.921L112.418 209.998L113.643 201.798L102.01 199.721Z" fill="black"/>
<path d="M250.04 197.914L238.406 200.252L239.778 208.424L251.412 206.086L250.04 197.914Z" fill="black"/>
</svg>
