<svg width="354" height="512" viewBox="0 0 354 512" fill="none" xmlns="http://www.w3.org/2000/svg">
<path d="M328.6 87.7C297.5 34.1 242.3 1.29999 180.9 -1.22041e-05C178.3 -0.100012 175.6 -0.100012 173 -1.22041e-05C111.6 1.29999 56.4 34 25.4 87.6C-6.39999 142.4 -7.2 208.3 23.1 263.7L150.1 496.1C150.2 496.2 150.2 496.3 150.3 496.4C155.9 506.1 165.9 511.9 177.1 511.9C188.3 511.9 198.3 506.1 203.9 496.4C204 496.3 204 496.2 204.1 496.1L331.1 263.7C361.2 208.3 360.3 142.5 328.6 87.7Z" fill="#FA180A"/>
<path d="M139.843 204.84C138.838 204.672 137.814 204.726 136.829 204.999C135.844 205.271 134.919 205.757 134.109 206.428C133.299 207.098 132.621 207.94 132.113 208.902C131.606 209.864 131.28 210.928 131.155 212.031C131.03 213.133 131.108 214.252 131.385 215.321C131.663 216.39 132.133 217.387 132.769 218.253C133.405 219.12 134.193 219.838 135.087 220.365C135.981 220.893 136.962 221.219 137.974 221.324C138.291 221.369 138.611 221.391 138.931 221.391C140.859 221.378 142.71 220.564 144.109 219.114C145.509 217.664 146.352 215.686 146.468 213.582C146.584 211.477 145.964 209.403 144.734 207.78C143.503 206.157 141.755 205.106 139.843 204.84V204.84ZM138.551 217.237L138.866 213.647L138.931 213.082L138.551 217.237Z" fill="black"/>
<path d="M288.7 137.199L293 130.352C289.929 128.009 286.168 127.005 282.455 127.536L229.857 135.051C227.511 135.358 225.262 136.26 223.291 137.685C221.319 139.109 219.679 141.016 218.499 143.256L204.475 170.014L191.761 160.43C189.06 158.404 185.778 157.518 182.526 157.937C179.273 158.356 176.269 160.05 174.071 162.706L179.716 168.269C180.676 167.106 181.989 166.364 183.412 166.181C184.834 165.997 186.269 166.385 187.45 167.272L197.087 174.534L196.05 175.743L192.331 174.152C191.527 173.807 190.64 173.771 189.816 174.051C188.991 174.332 188.279 174.911 187.795 175.693L186.937 177.097C186.186 176.37 185.259 175.897 184.267 175.735C183.275 175.572 182.262 175.728 181.349 176.183C179.486 177.245 177.845 178.721 176.533 180.516C174.649 178.364 172.211 176.889 169.543 176.287L167.101 172.702C166.766 172.212 166.337 171.81 165.844 171.523C165.351 171.235 164.806 171.071 164.248 171.04C163.689 171.003 163.13 171.104 162.611 171.337C162.093 171.569 161.63 171.926 161.255 172.382L159.496 174.484L157.456 171.252C157.161 170.783 156.78 170.385 156.338 170.084C155.897 169.783 155.403 169.584 154.888 169.5C154.372 169.417 153.847 169.45 153.344 169.597C152.841 169.745 152.371 170.004 151.964 170.359L149.753 172.286L134.49 143.173C133.311 140.94 131.677 139.035 129.715 137.604C127.753 136.174 125.517 135.258 123.178 134.926L70.4964 127.448C67.2033 126.986 63.8629 127.732 61 129.571L64.8593 136.733C66.2717 135.828 67.9196 135.462 69.5429 135.695L90.3286 138.644L87.5442 163.446L63.4083 160.122L62.451 168.365L86.6174 171.713L83.3734 200.569L63.4045 197.802L62.4624 206.02L116.143 213.464C116.217 219.482 118.284 225.265 121.96 229.743C125.637 234.22 130.673 237.088 136.135 237.813C137.07 237.937 138.012 237.999 138.954 238C143.942 237.992 148.79 236.19 152.75 232.872C156.71 229.554 159.563 224.904 160.868 219.638L172.643 221.266C172.802 221.29 172.962 221.301 173.122 221.299C173.81 221.298 174.485 221.092 175.074 220.703C175.664 220.315 176.145 219.758 176.468 219.094C176.782 219.778 177.263 220.353 177.858 220.757C178.453 221.161 179.138 221.378 179.838 221.383C179.998 221.384 180.158 221.373 180.316 221.349L192.851 219.617C194.04 224.395 196.504 228.678 199.928 231.919C203.352 235.16 207.581 237.212 212.076 237.813C213.011 237.937 213.952 237.999 214.894 238C220.449 237.987 225.809 235.755 229.965 231.724C234.121 227.693 236.788 222.141 237.465 216.111C237.575 215.236 237.643 214.355 237.67 213.473L291.329 206.02L290.371 197.778L269.609 200.656L266.361 171.792L291.329 168.34L290.371 160.097L265.434 163.541L262.653 138.736L283.458 135.765C285.308 135.499 287.182 136.012 288.7 137.199V137.199ZM97.8839 139.716L122.229 143.173C123.407 143.34 124.533 143.801 125.521 144.522C126.51 145.242 127.333 146.202 127.927 147.327L140.2 170.753L95.1109 164.522L97.8839 139.716ZM153.988 215.105C153.458 219.442 151.384 223.375 148.218 226.051C145.053 228.726 141.05 229.928 137.078 229.395C133.107 228.862 129.489 226.638 127.008 223.205C124.527 219.772 123.384 215.408 123.828 211.059C124.279 207.038 126.057 203.336 128.829 200.648C131.6 197.961 135.174 196.473 138.878 196.465C139.505 196.465 140.132 196.507 140.754 196.589C142.735 196.855 144.648 197.544 146.385 198.618C148.122 199.692 149.649 201.13 150.878 202.85C152.107 204.569 153.014 206.536 153.548 208.639C154.081 210.742 154.231 212.939 153.988 215.105V215.105ZM172.248 191.895L169.847 212.501L161.642 211.366C161.285 205.598 159.106 200.145 155.477 195.941C151.849 191.737 146.997 189.043 141.752 188.32C136.507 187.597 131.196 188.891 126.727 191.98C122.258 195.069 118.911 199.76 117.256 205.251L90.9022 201.6L94.1499 172.739L143.641 179.59V179.785C143.672 180.55 143.896 181.291 144.288 181.926C144.68 182.561 145.225 183.065 145.863 183.383C146.5 183.7 147.206 183.818 147.901 183.724C148.596 183.63 149.254 183.328 149.802 182.851L153.495 179.635L155.929 183.495C156.254 184.009 156.68 184.437 157.177 184.746C157.673 185.056 158.227 185.239 158.797 185.281C159.366 185.316 159.935 185.214 160.463 184.983C160.992 184.752 161.469 184.397 161.859 183.943L163.735 181.704L164.332 182.581C164.637 183.028 165.021 183.403 165.462 183.685C165.902 183.966 166.39 184.147 166.896 184.218C167.753 184.208 168.6 184.418 169.37 184.829C170.14 185.241 170.812 185.843 171.332 186.589C171.851 187.334 172.205 188.202 172.364 189.123C172.523 190.044 172.483 190.994 172.248 191.895V191.895ZM225.09 147.389C225.682 146.269 226.506 145.316 227.495 144.605C228.485 143.895 229.612 143.447 230.787 143.297L255.121 139.82L257.898 164.592L212.805 170.824L225.09 147.389ZM229.959 215.105C229.429 219.442 227.355 223.375 224.189 226.051C221.023 228.726 217.02 229.928 213.049 229.395C209.078 228.862 205.46 226.638 202.979 223.205C200.498 219.772 199.355 215.408 199.799 211.059V211.059C200.25 207.038 202.028 203.336 204.8 200.648C207.571 197.961 211.145 196.473 214.849 196.465C215.476 196.465 216.103 196.507 216.725 196.589C218.706 196.855 220.619 197.544 222.356 198.618C224.093 199.692 225.62 201.13 226.849 202.85C228.078 204.569 228.985 206.536 229.519 208.639C230.052 210.742 230.202 212.939 229.959 215.105V215.105ZM236.5 205.26C234.867 199.897 231.615 195.3 227.278 192.225C222.941 189.149 217.778 187.777 212.634 188.333C207.491 188.89 202.673 191.342 198.971 195.287C195.27 199.232 192.904 204.436 192.263 210.045C192.213 210.486 192.202 210.926 192.171 211.366L183.146 212.613L180.738 192.024C180.586 190.647 180.749 189.251 181.213 187.961C181.678 186.671 182.428 185.527 183.397 184.633C184.058 185.364 184.849 185.938 185.721 186.321C186.593 186.704 187.528 186.888 188.468 186.86C189.017 186.793 189.546 186.597 190.018 186.284C190.49 185.971 190.895 185.55 191.203 185.049L192.388 183.121L195.662 184.521C196.369 184.824 197.143 184.888 197.884 184.705C198.625 184.522 199.298 184.101 199.818 183.495L202.234 180.678L258.832 172.86L262.08 201.728L236.5 205.26Z" fill="black"/>
<path d="M215.814 204.84C214.809 204.672 213.785 204.726 212.8 204.999C211.815 205.271 210.89 205.757 210.08 206.428C209.27 207.098 208.592 207.94 208.084 208.902C207.576 209.864 207.251 210.928 207.126 212.031C207.001 213.133 207.079 214.252 207.356 215.321C207.633 216.39 208.104 217.387 208.74 218.253C209.375 219.12 210.164 219.838 211.058 220.365C211.952 220.893 212.933 221.219 213.945 221.324C214.262 221.369 214.582 221.391 214.902 221.391C216.83 221.378 218.681 220.564 220.08 219.114C221.48 217.664 222.323 215.686 222.439 213.582C222.555 211.477 221.935 209.403 220.705 207.78C219.474 206.157 217.726 205.106 215.814 204.84V204.84ZM214.522 217.237L214.837 213.647L214.902 213.082L214.522 217.237Z" fill="black"/>
<path d="M146.775 149.724L153.833 146.633L143.668 118.845L163.219 134.885C163.708 135.286 164.279 135.552 164.883 135.661C165.486 135.769 166.105 135.717 166.686 135.507C167.267 135.298 167.794 134.938 168.22 134.459C168.647 133.98 168.961 133.394 169.137 132.754L177.406 102.605L188.559 133.107C188.766 133.671 189.083 134.179 189.489 134.595C189.894 135.011 190.379 135.324 190.907 135.512C191.436 135.701 191.996 135.76 192.548 135.686C193.1 135.612 193.63 135.407 194.101 135.084L213.044 122.135L203.863 142.167L210.663 145.881L225.857 112.646C226.235 111.836 226.36 110.911 226.211 110.015C226.063 109.119 225.649 108.302 225.034 107.688C224.419 107.074 223.637 106.699 222.807 106.619C221.978 106.539 221.148 106.759 220.444 107.246L193.926 125.425L180.422 88.493C180.142 87.6825 179.632 86.9918 178.966 86.5229C178.299 86.0539 177.513 85.8314 176.723 85.8882C175.935 85.9269 175.179 86.2325 174.557 86.7624C173.936 87.2924 173.481 88.0206 173.255 88.8461L163.424 124.686L137.389 103.312C136.726 102.766 135.918 102.473 135.088 102.477C134.259 102.481 133.453 102.783 132.795 103.334C132.136 103.886 131.661 104.659 131.442 105.534C131.223 106.409 131.271 107.339 131.581 108.181L146.775 149.724Z" fill="black"/>
<path d="M96.0112 97.1091L100.923 91.7375L105.834 97.1091L111.205 91.2349L106.294 85.8633L111.205 80.4917L105.834 74.6174L100.923 79.989L96.0112 74.6174L90.64 80.4917L95.5515 85.8633L90.64 91.2349L96.0112 97.1091Z" fill="black"/>
<path d="M115.248 99.9016L109.314 105.086L124.491 125.861L130.425 120.676L115.248 99.9016Z" fill="black"/>
<path d="M217.975 80.757L196.998 103.699L202.37 109.575L223.347 86.6322L217.975 80.757Z" fill="black"/>
<path d="M228.96 80.4917L233.872 75.1201L238.783 80.4917L244.154 74.6174L239.243 69.2458L244.154 63.8743L238.783 58L233.872 63.3716L228.96 58L223.589 63.8743L228.501 69.2458L223.589 74.6174L228.96 80.4917Z" fill="black"/>
<path d="M102.01 181.721L100.785 189.921L112.418 191.998L113.642 183.798L102.01 181.721Z" fill="black"/>
<path d="M250.04 179.914L238.406 182.252L239.778 190.424L251.412 188.086L250.04 179.914Z" fill="black"/>
</svg>
